<svg xmlns="http://www.w3.org/2000/svg" viewBox="0 0 1200 520" preserveAspectRatio="xMaxYMid slice" role="img" aria-label="Ilustrasi dekoratif Papua">
<defs>
<radialGradient id="aura" cx="0.654" cy="0.423" r="0.55"><stop offset="0" stop-color="#d946a8" stop-opacity=".42"/><stop offset=".45" stop-color="#7c2d9c" stop-opacity=".22"/><stop offset="1" stop-color="#2a1160" stop-opacity="0"/></radialGradient>
<linearGradient id="isl2" x1="0" y1="0" x2="1" y2="1"><stop offset="0" stop-color="#e9a6da"/><stop offset=".55" stop-color="#9d4b9a"/><stop offset="1" stop-color="#4c1d95"/></linearGradient>
<linearGradient id="g1" x1="0" y1="0" x2="0" y2="1"><stop offset="0" stop-color="#7e3a96" stop-opacity=".55"/><stop offset="1" stop-color="#2b1263" stop-opacity=".0"/></linearGradient>
<linearGradient id="g2" x1="0" y1="0" x2="0" y2="1"><stop offset="0" stop-color="#5b2a86" stop-opacity=".75"/><stop offset="1" stop-color="#1e0f4a" stop-opacity=".0"/></linearGradient>
<linearGradient id="g3" x1="0" y1="0" x2="0" y2="1"><stop offset="0" stop-color="#341563" stop-opacity=".95"/><stop offset="1" stop-color="#17112f" stop-opacity=".0"/></linearGradient>
<filter id="glow" x="-15%" y="-15%" width="130%" height="130%"><feGaussianBlur stdDeviation="9"/></filter>
<path id="land" d="M708.5 169.1L711.3 171.1L711.0 174.0L716.5 176.9L716.9 178.6L714.5 181.4L718.8 183.6L722.2 183.0L726.2 185.4L726.6 187.3L704.5 217.9L702.2 217.1L703.5 217.7L703.5 216.6L699.3 206.4L705.2 206.7L706.9 203.5L705.7 203.2L705.3 200.2L702.5 199.6L701.9 196.6L703.5 194.4L700.9 193.0L699.4 193.8L699.4 195.8L697.1 195.1L694.8 192.0L696.3 191.7L696.1 190.2L686.0 181.5L684.6 181.6L681.1 180.6L676.9 182.5L675.8 179.9L675.4 181.2L673.4 180.1L673.2 181.3L673.0 179.7L674.8 179.6L675.2 178.2L673.0 177.9L676.3 176.5L672.0 175.8L681.1 173.4L677.7 173.1L678.8 172.1L689.2 172.6L689.2 174.6L691.3 173.8L691.0 172.7L694.5 173.1L699.6 177.0L701.6 176.4L708.5 169.1ZM720.8 222.6L728.5 226.9L731.2 230.3L727.3 227.5L725.2 228.1L720.7 225.6L720.8 222.6ZM747.5 216.2L751.1 219.9L747.1 218.6L746.0 216.4L747.5 216.2ZM743.9 176.4L749.1 184.5L751.0 184.4L751.5 193.0L756.3 200.5L761.8 201.5L765.3 200.7L766.1 197.0L764.8 194.7L768.2 194.4L770.9 197.6L772.7 197.0L776.5 199.4L779.9 205.1L786.5 204.6L783.9 208.2L779.9 209.4L781.0 212.4L780.1 214.3L782.8 217.6L780.6 218.9L781.2 221.0L775.3 228.1L772.8 228.1L769.6 226.1L768.8 223.4L766.3 223.4L767.2 221.0L767.0 222.8L769.7 221.2L767.9 220.8L767.5 218.6L771.2 216.9L774.6 219.3L778.0 217.4L767.4 216.5L762.0 220.7L759.6 216.3L755.9 214.9L756.5 218.0L753.7 217.4L755.9 219.9L754.4 220.9L749.9 216.6L750.1 215.3L748.0 215.9L750.9 213.3L749.0 210.1L747.6 211.0L748.3 211.9L746.3 212.9L745.6 211.5L742.8 214.3L738.3 203.5L736.6 205.1L737.7 209.6L735.5 206.7L733.3 207.6L733.9 205.2L730.8 200.7L733.6 198.5L732.5 192.0L733.6 190.0L736.2 190.1L738.4 184.6L741.0 187.9L737.6 180.6L736.9 185.0L734.7 184.9L731.8 188.3L731.8 197.9L728.0 199.1L726.4 197.0L727.2 199.3L725.8 199.8L728.3 200.0L730.0 202.6L723.1 208.6L725.1 214.2L717.7 221.8L711.5 221.1L709.5 223.4L705.9 222.2L706.0 220.8L703.4 218.9L726.6 186.5L729.1 186.2L730.3 183.0L734.2 180.8L734.4 177.6L739.3 176.5L742.8 179.2L743.9 176.4ZM764.1 158.6L765.0 162.6L764.0 164.2L762.8 162.8L761.9 161.4L764.0 161.6L764.1 158.6ZM757.9 148.5L758.6 151.2L756.5 154.6L755.3 151.4L757.9 148.5ZM747.7 140.8L749.2 148.4L747.8 150.5L748.6 156.0L751.7 163.4L753.3 163.9L755.2 166.5L754.3 167.0L756.1 168.1L755.4 169.4L757.4 171.4L759.8 178.5L761.6 179.0L762.6 176.6L760.4 168.0L762.2 165.7L764.2 165.8L762.2 165.4L763.6 165.3L762.9 164.5L764.3 165.4L766.4 165.4L767.4 170.3L767.4 175.3L764.8 177.0L766.4 185.7L765.6 188.4L767.8 189.9L769.3 194.6L764.8 194.7L766.2 197.1L765.3 200.6L761.8 201.5L756.3 200.5L753.1 196.8L751.3 186.7L752.3 188.2L754.3 187.9L756.8 182.3L755.2 175.8L753.3 173.6L753.4 170.1L750.9 168.8L747.9 164.0L746.1 144.7L744.5 143.0L747.7 140.8ZM752.0 139.3L750.0 146.9L749.4 142.6L752.0 139.3ZM739.4 162.2L742.1 162.6L743.3 165.5L740.6 165.5L738.5 162.6L739.4 162.2ZM741.9 160.2L743.6 162.4L737.9 161.9L741.9 160.2ZM744.1 157.2L743.8 159.2L739.1 160.7L738.2 159.9L739.9 159.7L741.6 159.5L742.6 156.9L744.1 157.2ZM716.0 122.0L725.7 125.2L725.3 130.0L726.9 131.4L732.0 130.8L733.2 127.2L732.6 131.4L734.4 134.2L732.1 135.5L735.6 135.3L736.3 136.9L739.9 138.1L741.3 141.6L739.8 143.0L745.3 143.5L747.9 164.0L750.9 168.8L753.4 170.1L753.3 173.6L755.2 175.8L756.8 182.3L754.4 187.8L752.3 188.2L750.9 184.4L749.2 184.5L746.4 181.4L744.3 176.4L742.8 179.2L739.3 176.5L734.4 177.7L734.2 180.8L730.3 183.0L729.1 186.2L726.5 186.8L722.0 183.0L718.4 183.5L714.5 181.4L716.9 178.6L716.5 176.9L711.0 174.0L711.3 171.1L708.4 169.1L711.9 165.0L716.6 163.2L719.7 164.4L719.1 166.7L720.4 165.2L722.2 166.6L723.0 173.0L725.3 171.0L727.6 171.3L731.4 167.4L732.7 168.7L732.3 171.9L733.3 170.4L735.3 170.6L735.8 172.4L737.3 171.5L736.6 165.9L737.9 164.4L743.3 165.6L742.4 162.6L743.8 161.5L742.4 160.1L744.2 157.4L742.1 156.9L742.5 150.8L730.9 156.8L715.2 155.5L707.6 158.9L703.3 157.2L698.9 159.2L695.8 158.1L694.9 155.5L696.3 151.8L698.3 151.6L695.4 148.2L696.9 147.3L695.7 144.3L699.6 144.3L701.5 133.6L705.7 127.4L705.7 123.7L709.2 126.0L716.0 122.0ZM742.3 103.3L749.0 108.6L746.0 108.8L744.5 111.8L747.8 118.0L750.7 120.4L744.8 121.8L741.3 119.2L740.6 113.5L739.1 116.4L738.3 115.5L736.2 118.0L734.0 117.7L731.8 114.7L729.7 116.1L726.5 114.9L724.0 106.3L729.1 103.5L734.3 104.6L734.7 103.6L737.7 104.5L742.3 103.3ZM751.2 120.9L753.9 125.7L751.7 127.7L751.3 132.8L746.6 136.5L747.7 139.7L746.9 141.7L740.1 143.2L741.3 141.7L740.3 138.5L734.0 135.3L731.9 135.3L734.2 134.8L733.4 131.9L736.7 131.5L738.7 133.2L738.9 131.2L742.0 132.3L744.5 128.6L746.9 129.1L745.1 127.9L747.0 128.1L745.7 126.1L747.0 123.3L745.7 121.9L751.2 120.9ZM725.7 111.7L727.6 115.6L729.7 116.1L731.8 114.7L734.0 117.7L736.2 118.0L736.8 116.0L739.1 116.4L740.6 113.5L741.3 119.2L747.0 123.3L745.7 126.1L747.0 128.1L745.1 127.9L746.9 129.1L744.5 128.6L742.0 132.3L738.9 131.2L738.7 133.2L736.7 131.5L733.0 132.1L733.0 127.1L732.0 130.8L726.1 131.0L725.7 125.2L717.1 121.8L717.5 119.9L721.9 121.3L724.2 119.7L725.7 111.7ZM615.8 137.1L616.8 137.8L615.8 139.4L619.1 142.7L617.8 145.0L615.4 145.9L619.0 147.9L615.5 147.1L612.8 150.6L607.8 150.8L607.1 149.2L600.7 148.6L593.6 144.4L605.5 139.0L612.5 139.1L615.8 137.1ZM599.2 118.6L602.7 119.4L598.3 121.2L599.5 120.3L594.5 121.2L594.1 120.1L599.2 118.6ZM635.2 109.5L636.5 111.3L639.7 110.3L641.7 113.8L639.8 120.3L635.8 118.0L631.5 117.5L625.8 112.7L635.2 109.5ZM631.8 104.7L633.7 106.4L633.5 105.1L636.1 105.7L633.8 106.5L635.1 107.6L633.4 108.4L617.7 110.4L619.3 109.6L618.7 108.5L620.5 106.0L620.5 107.4L622.2 107.7L623.4 106.1L624.0 107.5L625.8 106.0L626.8 107.3L627.0 106.3L628.7 107.4L631.5 106.1L632.1 107.3L631.8 104.7ZM625.1 92.1L627.9 93.7L626.5 96.2L623.8 97.0L624.9 95.3L623.7 94.4L622.6 96.2L619.5 96.1L621.5 95.3L619.9 95.2L620.2 93.6L621.9 94.6L625.1 92.1ZM632.1 78.3L637.4 80.3L640.4 78.9L639.8 80.3L649.2 83.8L649.1 86.7L650.6 88.4L647.2 90.1L647.1 91.5L642.1 89.0L637.2 90.5L634.0 86.4L631.6 86.6L631.2 84.1L627.4 81.6L628.0 80.9L625.3 80.9L626.9 82.2L625.3 83.2L627.9 85.1L629.1 88.5L635.8 88.9L636.7 90.6L634.4 92.9L629.8 93.7L627.1 90.1L627.9 88.7L623.6 89.4L623.1 91.1L624.1 90.8L622.5 93.1L621.6 86.6L618.8 88.3L611.1 85.5L616.3 85.2L616.7 86.5L619.3 85.1L616.7 84.5L618.4 84.0L618.4 82.7L617.1 84.2L615.2 83.1L615.9 84.9L614.1 84.2L613.3 82.1L615.6 82.0L615.8 80.9L616.2 82.9L616.4 80.8L618.0 82.2L621.3 79.9L622.9 80.9L623.5 79.5L630.5 80.0L629.5 79.0L632.1 78.3ZM671.1 115.5L675.8 115.5L677.8 124.8L688.6 133.5L687.7 140.3L690.6 139.1L691.7 140.5L691.3 141.7L688.1 141.0L689.5 144.6L692.2 142.3L695.9 143.7L696.9 147.3L695.4 148.2L698.0 150.4L697.8 152.4L696.3 151.8L694.9 155.7L685.5 158.3L675.3 151.3L676.8 149.4L672.7 147.4L673.4 146.3L671.3 144.5L671.0 142.1L674.3 139.7L674.2 137.4L670.8 138.7L669.5 134.0L666.1 134.6L667.5 130.3L667.1 126.5L669.1 124.8L668.8 126.1L669.8 125.6L668.6 119.0L671.1 115.5ZM683.6 110.8L689.9 114.6L694.2 113.6L695.4 115.4L693.7 117.1L694.1 118.5L698.6 119.6L701.5 118.6L705.8 124.1L705.7 127.4L701.5 133.6L699.6 144.3L695.7 144.3L692.2 142.3L689.5 144.6L688.1 141.0L691.7 141.4L690.6 139.1L687.7 140.3L689.3 134.7L677.8 124.8L676.5 120.7L676.3 116.6L680.3 117.2L680.3 115.3L681.8 115.0L681.8 111.2L683.6 110.8ZM688.6 90.3L699.0 90.9L714.3 97.4L722.6 104.2L726.1 104.2L725.7 106.3L724.0 106.3L725.6 110.8L723.4 120.5L721.9 121.3L717.5 119.9L717.4 122.3L714.4 122.2L709.1 126.0L702.7 121.6L701.8 119.3L694.1 118.5L693.7 117.1L695.4 115.4L694.2 113.6L689.9 114.6L683.5 110.7L682.3 111.4L683.4 106.3L680.8 107.1L676.8 104.3L670.6 103.3L665.4 106.3L664.9 103.9L670.4 101.9L679.8 93.2L688.6 90.3ZM796.0 134.5L807.0 135.5L809.3 136.8L811.0 135.8L821.7 136.3L827.5 138.7L842.3 139.5L846.3 141.3L844.4 142.6L839.8 142.2L836.7 144.2L832.2 143.3L833.4 145.1L825.5 143.8L822.6 145.5L821.6 143.6L813.8 142.2L805.1 137.6L796.0 137.4L793.8 134.6L796.0 134.5ZM783.6 129.8L787.0 130.1L787.2 131.3L788.0 130.5L788.3 131.8L788.9 130.4L791.2 130.4L790.8 131.4L786.6 132.0L782.8 131.3L783.6 129.8ZM774.3 111.0L777.4 112.3L776.7 116.0L778.7 113.8L777.6 117.9L774.3 118.2L772.1 114.5L772.1 112.7L774.3 111.0ZM807.9 102.3L816.3 108.3L815.9 109.7L820.6 115.0L823.6 114.0L825.9 116.0L828.1 115.9L823.1 119.4L819.7 120.4L814.6 118.4L809.5 119.3L807.6 116.9L808.5 114.5L805.3 106.6L807.9 102.3ZM895.6 137.8L908.3 141.3L915.3 147.5L924.5 149.7L946.9 161.4L955.5 161.6L954.5 164.3L946.6 163.0L947.7 165.6L946.8 167.3L940.6 167.7L939.8 170.1L937.2 170.6L934.8 169.5L933.0 171.9L935.0 173.8L935.1 176.9L939.0 177.5L940.9 179.7L938.4 181.9L939.0 186.5L936.9 190.5L938.2 194.8L935.6 199.3L936.4 200.2L933.3 199.3L932.1 201.0L931.7 199.7L930.9 200.6L928.9 199.9L929.6 198.7L927.4 199.8L925.1 199.0L925.1 196.6L924.0 197.4L922.7 195.4L923.3 194.0L920.2 192.1L921.0 188.6L924.3 188.1L924.4 185.8L923.1 185.2L925.2 182.4L923.9 179.8L926.7 177.1L928.2 170.8L924.7 171.7L922.8 169.8L910.2 167.4L906.9 165.5L903.9 167.8L900.3 167.1L898.4 162.4L901.3 160.0L900.4 156.5L898.1 156.6L897.0 156.0L899.4 155.2L895.5 154.6L895.8 151.1L893.9 150.3L893.0 146.6L890.2 145.8L889.7 142.2L891.1 139.6L890.1 135.5L895.6 137.8ZM984.3 173.8L990.6 178.3L990.5 219.9L989.6 218.0L980.6 219.9L978.4 218.2L980.6 222.7L978.7 220.5L975.3 223.3L969.5 216.2L970.5 214.1L969.5 211.6L974.1 212.7L972.7 216.6L975.2 218.4L975.9 216.4L977.4 218.5L980.2 216.0L982.7 217.8L985.0 216.6L983.1 214.0L980.0 215.2L979.4 211.9L974.9 210.4L971.4 211.0L967.3 208.2L969.3 206.1L968.6 202.1L967.2 201.1L968.3 200.5L968.3 196.9L966.7 195.5L966.5 190.8L969.6 188.6L967.9 185.0L969.8 184.4L968.8 181.9L969.9 178.5L968.5 177.5L969.6 176.3L971.8 175.2L975.0 175.9L976.0 174.0L979.3 175.6L984.3 173.8ZM835.3 155.5L835.7 157.6L838.3 157.9L843.3 155.8L847.5 160.6L846.7 162.3L850.8 163.4L854.8 169.4L858.2 169.0L859.6 177.1L862.4 179.7L863.1 183.2L865.8 185.7L869.1 186.4L865.3 187.7L862.4 186.3L858.6 188.3L854.1 188.3L849.9 195.1L848.0 193.9L851.2 191.1L845.6 189.1L846.8 192.1L845.8 193.2L846.9 195.6L848.2 195.6L848.3 197.7L846.2 198.3L844.5 193.4L845.4 192.6L840.8 193.3L841.5 190.7L838.1 188.8L837.6 190.8L840.1 192.3L834.5 192.9L832.8 190.4L834.7 185.6L830.8 186.1L828.2 184.3L825.5 184.6L824.9 179.7L819.6 175.9L816.3 175.9L815.0 173.6L822.4 170.3L826.6 161.9L826.5 157.9L829.5 155.8L832.8 155.4L833.7 156.6L835.3 155.5ZM793.2 100.0L794.8 101.7L800.2 101.6L800.3 102.9L802.1 101.5L805.7 104.2L803.9 106.4L802.0 109.4L796.0 104.2L796.4 106.9L792.9 102.8L792.1 100.5L793.2 100.0ZM882.6 129.6L883.2 132.3L890.7 136.1L890.2 145.8L893.0 146.6L893.9 150.3L895.8 151.1L895.5 154.6L899.4 155.2L897.0 156.0L898.1 156.6L900.4 156.5L901.3 160.0L898.4 162.4L900.3 167.1L903.9 167.8L906.9 165.5L910.2 167.4L922.8 169.8L924.7 171.7L928.3 170.9L926.7 177.1L923.9 179.8L925.2 182.4L923.1 185.2L924.4 185.8L924.3 188.1L921.7 187.8L920.1 190.8L921.8 194.3L915.6 198.9L917.2 193.8L915.8 191.9L913.3 191.8L913.9 189.9L910.1 191.5L908.8 190.8L909.6 192.7L908.7 192.3L906.0 195.7L904.0 195.3L905.9 192.5L905.9 189.2L905.4 187.3L907.1 187.3L906.5 183.6L904.0 181.1L904.5 182.3L901.6 182.2L903.1 183.4L902.5 185.9L902.0 184.8L900.4 185.4L900.3 186.9L893.3 190.6L890.1 194.3L890.5 190.9L893.2 189.3L891.1 187.8L890.6 182.9L888.5 183.9L890.0 183.7L890.1 185.6L887.0 184.7L886.7 183.3L884.2 185.0L883.6 184.0L881.3 184.5L880.8 186.9L879.5 185.7L877.5 186.9L874.6 185.3L870.0 186.3L865.1 185.3L863.1 183.2L862.4 179.7L859.6 177.1L858.6 169.5L854.7 169.4L850.8 163.4L846.7 162.3L847.5 160.6L842.8 154.9L846.5 155.0L847.7 153.0L855.3 152.4L857.8 150.7L856.4 148.7L857.3 147.9L852.9 143.4L854.1 140.8L876.0 130.3L882.6 129.6ZM902.5 371.7L899.3 374.4L895.9 375.2L894.2 375.0L895.5 374.3L902.5 371.7ZM913.8 365.4L914.7 369.6L917.1 370.9L917.1 373.1L913.0 373.6L904.3 372.0L908.2 368.7L908.8 366.3L913.8 365.4ZM908.7 338.0L914.0 339.2L918.0 344.3L923.2 345.3L919.9 351.3L919.9 355.0L916.3 357.3L917.0 363.0L908.8 365.6L906.6 369.1L901.4 372.7L891.4 373.8L880.4 373.4L873.5 376.4L872.3 375.1L874.3 366.7L878.4 361.7L877.8 360.5L880.2 355.1L889.1 344.0L896.0 340.2L908.7 338.0ZM985.4 311.6L985.1 315.1L987.0 316.3L985.9 317.7L987.6 318.5L986.9 319.6L988.8 320.0L988.9 321.9L991.2 321.2L991.2 400.0L986.6 398.5L977.1 389.2L972.9 382.0L963.3 372.9L955.2 367.5L953.6 363.9L945.2 363.7L932.1 367.6L927.4 363.7L923.0 365.1L917.0 369.7L914.3 364.3L917.5 363.0L916.9 357.8L920.8 355.1L920.7 351.7L923.9 344.8L922.0 343.3L918.8 343.3L915.4 336.2L909.0 333.1L908.9 331.1L940.6 337.7L947.7 338.2L958.5 332.3L964.3 324.4L970.2 320.9L974.1 314.9L976.0 326.9L979.4 325.9L984.2 326.8L980.2 315.7L985.4 311.6ZM959.1 256.0L963.7 256.2L964.8 259.3L968.9 262.0L977.6 263.8L980.8 262.7L980.6 264.4L990.5 266.6L990.5 301.1L989.1 301.2L989.7 302.6L988.5 303.3L989.9 303.5L988.8 305.0L987.6 304.7L989.1 306.9L987.7 307.5L988.3 309.6L986.6 309.6L987.1 310.7L982.8 314.0L980.6 314.3L981.3 320.6L984.5 326.3L980.4 326.2L976.0 326.9L974.1 314.9L970.2 320.9L964.3 324.4L958.3 332.4L956.7 324.1L958.0 322.2L957.6 306.2L948.2 307.3L945.4 305.0L945.0 303.6L950.5 295.8L949.8 283.2L945.4 280.5L945.2 278.7L948.9 275.0L946.7 264.8L950.4 264.9L952.3 262.0L954.6 262.2L954.7 257.7L956.8 259.4L956.7 260.9L959.5 259.8L957.4 256.2L959.1 256.0ZM907.4 315.6L910.8 316.5L913.0 319.2L910.6 320.9L908.7 320.4L906.6 316.9L907.4 315.6ZM909.8 312.1L913.8 314.6L914.2 317.6L917.6 317.6L918.1 318.9L914.2 318.9L908.6 315.3L908.4 312.9L909.8 312.1ZM946.7 277.2L945.4 280.5L949.8 283.2L950.5 295.8L945.0 303.6L948.2 307.3L957.6 306.2L958.0 322.2L956.7 324.1L958.3 332.4L947.7 338.2L942.9 338.7L938.6 336.4L908.9 331.1L909.8 327.7L906.2 325.1L904.8 322.7L907.0 320.7L910.4 321.5L918.4 318.9L917.7 317.4L914.2 317.3L913.9 314.3L906.2 308.2L912.5 304.0L915.6 296.0L917.2 295.1L917.4 277.6L923.4 274.3L925.0 277.3L937.8 275.6L937.5 272.5L939.9 269.1L944.6 267.3L946.7 264.8L948.9 275.0L946.7 277.2ZM887.7 239.1L889.6 240.0L891.7 244.4L896.4 242.8L897.6 247.3L899.0 247.8L905.0 247.2L904.5 244.0L911.4 244.2L913.3 244.9L913.3 246.3L915.0 244.0L919.7 246.4L917.7 248.5L921.8 249.7L926.9 244.6L922.8 254.0L937.6 254.6L943.6 256.7L954.9 256.5L954.7 257.7L952.8 257.7L952.4 261.7L950.8 259.8L949.0 260.2L952.3 262.0L951.0 264.4L947.0 264.6L944.6 267.3L939.9 269.1L937.5 272.5L937.8 275.6L925.0 277.3L923.4 274.3L917.4 277.6L917.2 295.1L915.6 296.0L912.5 304.0L906.2 308.2L899.8 302.1L899.4 300.1L898.8 295.7L893.8 286.8L894.7 284.1L890.8 283.2L890.8 280.0L887.2 280.0L886.7 275.0L889.6 273.4L885.2 272.3L880.1 266.8L875.6 267.6L876.2 265.5L873.7 262.8L874.5 259.8L875.9 259.4L875.0 258.4L877.0 256.7L876.0 254.7L878.6 255.4L879.7 252.1L878.8 250.8L881.4 246.2L876.8 242.0L878.9 242.0L878.9 240.3L886.0 240.8L887.7 239.1ZM781.8 218.8L784.6 219.7L784.7 221.2L782.3 221.3L784.6 221.9L783.8 225.0L785.7 226.1L789.1 225.1L790.0 226.5L792.0 226.0L795.5 228.1L797.1 226.4L801.2 227.4L803.4 226.1L804.4 228.7L806.0 229.2L815.3 229.3L815.9 231.3L814.7 232.3L817.2 233.4L819.9 231.3L828.8 231.0L830.1 226.9L833.4 229.6L833.7 226.4L837.2 226.6L837.6 228.7L835.0 232.3L838.7 233.4L840.6 230.2L842.7 229.9L842.3 227.8L847.2 225.2L847.4 223.5L850.0 223.8L851.0 220.8L853.7 220.2L856.2 221.9L864.1 221.8L869.5 224.4L870.1 226.0L878.8 227.6L879.7 226.5L880.2 229.0L881.5 226.8L883.8 227.0L882.5 234.2L880.2 234.2L878.8 238.1L882.3 240.4L878.9 240.3L878.9 242.0L876.8 242.0L881.4 246.2L879.4 250.6L878.6 255.4L876.0 254.7L877.0 256.7L874.9 258.5L875.9 259.4L872.3 262.1L869.0 259.3L867.2 259.6L865.5 258.0L864.5 258.9L860.6 254.9L857.2 253.7L856.1 254.7L850.9 251.6L848.8 252.3L847.2 250.5L843.8 251.4L842.3 250.2L844.3 248.4L841.6 247.9L840.5 249.9L825.9 242.3L818.4 241.1L811.9 236.6L804.7 236.7L793.5 234.3L786.4 235.6L775.3 228.1L777.1 227.2L781.2 221.0L780.4 219.4L781.8 218.8ZM780.9 211.6L789.0 213.5L789.6 212.3L790.1 214.3L793.9 215.4L795.0 214.4L799.4 217.3L803.9 215.0L812.9 216.2L816.0 214.1L818.2 216.1L819.0 214.2L819.6 217.3L821.9 217.6L820.2 220.8L817.7 221.3L817.7 224.7L814.9 227.2L814.7 229.1L806.0 229.2L803.1 226.0L801.2 227.4L797.1 226.4L794.4 228.0L789.1 225.1L785.7 226.1L783.9 225.2L784.6 221.9L782.3 221.2L784.7 221.2L784.6 219.7L781.7 218.5L780.5 219.3L782.8 217.5L780.1 214.3L780.9 211.6ZM825.7 219.2L833.1 220.3L835.8 222.7L834.7 224.4L838.5 225.9L841.7 225.0L840.0 222.4L841.9 222.0L847.3 224.0L842.3 227.8L842.7 229.9L840.6 230.2L839.7 232.8L835.7 233.1L835.7 232.0L837.6 228.7L837.2 226.6L833.4 226.4L833.4 229.6L830.2 226.9L828.7 231.0L819.9 231.3L817.3 233.4L815.4 233.0L814.9 227.2L817.7 224.7L817.7 221.3L820.2 220.8L821.3 218.6L825.7 219.2ZM815.2 173.8L816.3 175.9L819.6 175.9L824.9 179.7L826.4 185.8L825.7 192.9L821.1 194.6L819.9 200.2L818.2 200.5L814.2 205.8L815.5 208.8L818.7 210.2L818.7 215.8L816.1 214.1L812.9 216.2L803.9 215.0L802.8 216.0L802.5 211.5L800.7 210.1L797.2 211.3L795.2 208.8L792.7 209.8L792.9 210.8L800.4 216.1L799.4 217.3L795.0 214.4L793.9 215.4L790.1 214.3L789.6 212.3L789.0 213.5L780.6 211.5L784.6 210.5L788.7 206.1L785.7 204.1L784.3 205.5L784.0 204.4L779.9 205.1L774.0 197.5L769.8 196.7L767.8 189.9L765.6 188.4L766.4 185.7L764.8 177.0L766.6 175.4L768.5 182.9L771.3 183.6L774.2 179.9L774.2 184.0L772.7 185.3L773.7 187.3L772.8 186.8L772.3 188.6L774.5 189.5L774.5 192.8L777.1 193.5L776.4 192.6L778.0 191.9L777.4 193.9L779.7 195.9L791.4 198.0L797.1 196.5L800.9 190.3L806.3 187.8L805.1 186.3L811.9 182.6L811.2 179.3L815.2 173.8ZM858.1 217.5L859.2 217.6L858.5 219.3L853.8 220.2L855.0 218.8L854.8 217.7L858.1 217.5ZM822.0 194.4L825.6 200.7L828.1 201.5L828.3 204.0L829.4 202.4L832.1 205.0L834.9 205.5L834.5 209.1L841.6 211.8L839.7 213.0L840.2 215.1L847.8 217.6L847.3 216.2L850.1 216.2L848.7 214.5L849.6 213.6L853.1 220.4L850.9 220.9L850.3 223.6L841.8 222.0L840.0 222.4L841.7 225.0L838.5 225.9L834.7 224.4L835.7 222.6L832.4 219.9L827.3 219.4L826.8 218.2L822.1 219.1L821.8 217.6L819.6 217.4L818.7 210.1L815.5 208.8L814.2 205.8L818.2 200.5L819.9 200.3L820.0 196.7L822.0 194.4ZM828.2 184.3L830.8 186.1L834.8 185.7L832.8 190.4L834.5 192.9L840.1 192.3L837.6 190.8L838.1 188.8L841.5 190.7L840.8 193.3L844.4 192.6L846.2 198.3L848.3 197.7L848.4 196.1L845.6 189.1L851.2 191.1L848.0 193.9L849.9 195.1L854.3 192.3L858.0 192.6L859.4 194.4L856.9 200.5L854.7 198.6L851.8 200.5L850.3 199.1L849.0 200.9L850.7 203.2L853.8 203.8L859.8 200.5L856.9 202.8L856.4 207.1L859.9 205.5L860.8 203.7L862.2 204.5L857.0 211.3L858.7 214.9L857.6 217.4L855.1 217.5L853.3 220.5L849.5 213.5L848.7 214.5L850.1 216.2L847.3 216.2L847.8 217.6L840.2 215.1L839.7 213.0L841.6 211.8L835.1 209.7L834.9 205.5L829.9 203.6L826.7 197.2L824.6 198.3L825.3 196.7L823.3 194.6L825.8 192.7L825.8 184.7L828.2 184.3ZM871.6 185.3L873.8 185.7L872.9 186.9L869.6 187.6L865.1 192.7L866.1 197.3L871.4 200.6L872.5 202.9L870.7 205.2L874.0 209.0L878.4 208.1L882.5 213.9L887.7 214.7L883.6 216.8L883.0 220.1L885.1 223.5L882.3 225.9L879.4 226.0L879.3 224.5L875.6 223.5L874.6 226.1L870.1 226.0L869.5 224.4L864.1 221.8L855.5 221.5L853.8 220.2L858.6 219.3L859.2 217.6L855.2 217.6L858.2 216.8L857.0 211.3L862.3 204.8L860.8 203.7L859.9 205.5L856.4 207.1L856.9 202.8L859.8 200.5L853.8 203.8L850.7 203.2L849.1 201.3L850.3 199.1L851.8 200.5L854.7 198.6L856.9 200.5L858.9 197.3L859.4 194.4L858.0 192.6L854.3 192.3L850.5 194.8L852.0 190.2L856.3 187.7L858.6 188.3L862.4 186.3L865.4 187.7L871.6 185.3ZM891.0 183.3L891.1 187.8L887.6 188.6L887.1 191.3L888.6 194.7L889.7 194.4L889.0 198.1L894.5 201.2L893.9 205.8L894.9 208.8L897.0 209.5L897.4 213.1L887.9 216.0L886.5 214.0L882.5 213.9L878.5 208.1L874.0 209.0L870.7 204.9L872.4 202.5L871.1 200.2L866.1 197.3L865.0 193.3L866.1 191.3L869.7 187.5L872.3 187.4L874.3 185.3L880.8 186.9L881.4 184.4L883.6 184.0L884.2 185.0L886.9 183.3L887.0 184.7L890.0 185.6L890.0 183.7L888.5 183.9L891.0 183.3ZM916.4 243.3L920.6 244.5L918.7 245.9L915.1 244.1L916.4 243.3ZM893.2 220.2L895.4 222.6L897.1 221.2L907.8 224.6L906.7 232.6L905.5 233.7L907.0 235.9L912.0 235.9L912.2 232.8L914.0 233.9L913.3 240.7L914.6 241.3L914.5 243.3L913.4 246.2L913.3 244.8L911.4 244.2L905.6 243.8L903.8 244.6L905.0 247.2L898.7 247.4L896.4 242.8L891.7 244.4L888.8 239.5L882.8 240.5L878.9 238.3L880.2 234.2L882.5 234.2L883.9 227.0L881.5 226.8L880.2 229.0L879.7 226.5L878.8 227.6L874.7 226.0L875.6 223.5L879.3 224.5L879.4 226.0L882.3 225.9L885.9 222.4L888.8 222.6L893.2 220.2ZM908.9 211.5L916.3 212.0L916.7 214.4L920.6 218.3L922.3 216.3L925.1 217.6L927.2 219.1L927.9 223.7L927.6 225.7L920.6 226.0L917.3 228.3L913.2 226.6L911.1 229.3L910.3 231.6L911.8 231.8L912.0 235.9L907.0 235.9L905.5 233.7L906.7 232.6L908.9 221.2L911.2 219.1L910.3 215.1L907.5 212.7L907.7 210.6L908.9 211.5ZM905.7 212.5L906.8 212.3L905.2 211.3L907.2 211.0L910.3 215.1L911.2 219.0L909.3 220.3L907.5 227.5L907.8 224.6L904.0 223.0L897.1 221.2L895.4 222.6L892.9 220.0L890.9 220.5L890.8 221.8L884.4 223.1L883.0 220.1L885.0 215.6L891.3 215.7L894.3 213.1L897.4 213.1L897.1 210.7L905.7 212.5ZM905.7 212.5L905.0 211.3L904.7 212.6L905.8 212.8L902.9 212.6L896.9 210.6L893.9 205.8L894.5 201.2L889.0 198.1L889.7 194.4L888.6 194.7L887.1 191.3L887.6 188.6L890.9 187.7L893.2 189.3L890.5 190.9L890.1 194.3L894.1 190.6L895.2 190.1L897.3 192.4L900.2 192.0L901.5 194.9L906.0 195.7L908.7 192.3L909.6 192.7L908.8 190.8L910.2 191.5L911.3 190.1L912.3 191.1L913.9 189.9L913.3 191.8L916.9 193.0L911.9 200.5L905.7 197.6L909.6 201.1L911.8 205.7L909.5 209.4L907.7 209.0L906.6 211.2L905.2 211.3L906.8 212.3L905.7 212.5ZM916.8 194.1L915.6 198.9L922.3 193.7L924.0 197.3L925.1 196.8L925.1 199.0L927.4 199.8L929.6 198.7L928.9 199.9L930.9 200.6L931.7 199.7L932.1 201.0L933.3 199.3L936.4 200.2L934.8 205.1L931.9 207.1L931.4 206.1L929.3 209.3L931.1 209.7L929.9 210.3L930.1 211.2L924.4 209.9L924.3 212.7L921.1 214.2L918.5 212.3L920.7 214.4L918.2 214.9L916.7 214.4L916.0 211.9L906.8 211.1L907.7 209.0L909.7 209.3L911.8 205.7L909.6 201.1L905.7 197.6L911.9 200.5L916.8 194.1ZM931.6 222.5L932.7 223.9L928.7 224.5L929.4 225.7L927.6 225.9L927.2 219.1L922.3 216.3L920.1 218.0L918.3 214.4L920.7 214.4L918.5 212.4L921.3 214.2L924.6 212.4L924.4 209.9L930.1 211.2L930.1 209.5L931.1 209.7L929.3 209.3L930.3 207.5L934.8 205.1L936.4 200.2L936.7 202.3L937.6 201.1L938.4 202.5L938.3 207.1L941.0 209.6L942.1 207.4L944.9 206.4L944.4 205.1L943.9 202.7L946.0 203.3L946.8 201.9L948.2 204.8L950.5 204.6L952.2 206.9L954.2 205.5L955.3 208.7L957.6 206.8L959.7 208.5L954.8 210.1L950.5 208.2L948.9 209.9L950.1 210.6L949.5 212.0L948.0 211.2L948.8 209.9L947.0 211.1L942.4 219.8L940.2 219.3L941.3 222.0L938.1 221.2L936.4 223.1L935.2 221.8L934.2 223.3L933.7 221.4L931.6 222.5ZM954.4 236.0L953.2 236.1L953.8 238.3L956.0 237.0L957.6 237.5L956.6 239.0L959.0 239.7L958.4 243.4L956.1 241.9L954.6 242.6L957.1 242.4L956.1 244.2L957.7 248.2L957.3 255.5L959.5 259.8L956.7 260.9L956.8 259.4L954.7 257.7L954.6 262.2L952.6 262.1L949.0 260.2L950.8 259.8L952.4 261.7L952.8 257.7L954.7 257.7L954.9 256.5L943.6 256.7L937.6 254.6L922.8 254.0L926.9 244.6L921.8 249.7L917.7 248.5L920.8 245.4L920.2 244.4L916.2 243.2L913.1 246.1L914.5 243.3L914.5 241.2L913.3 240.7L914.0 233.8L911.7 232.2L913.2 231.5L912.1 229.8L913.2 228.9L911.4 228.6L913.2 226.6L913.9 227.7L917.3 228.3L923.6 225.4L928.8 226.4L929.6 225.2L928.7 224.5L932.7 224.0L931.6 222.5L933.6 221.4L934.2 223.3L938.1 221.2L941.3 222.0L940.2 219.3L942.4 219.8L947.0 211.1L948.8 209.9L948.0 211.2L949.5 212.0L950.1 210.6L948.9 209.9L950.4 208.2L953.1 208.4L954.8 210.1L960.1 208.5L961.0 212.4L959.6 216.1L960.7 217.7L958.9 220.6L959.4 230.0L958.6 229.3L958.4 231.7L954.1 230.4L953.7 233.8L956.7 233.5L956.4 234.7L953.7 234.8L954.4 236.0ZM990.5 213.1L990.2 266.6L959.6 259.8L957.1 253.0L959.2 238.5L958.5 231.2L960.3 216.0L959.1 211.6L962.8 210.4L966.6 211.8L990.5 213.1ZM651.1 105.7L652.6 111.0L650.2 110.9L647.1 109.0L646.5 107.1L651.1 105.7ZM978.6 165.4L981.6 167.5L980.2 167.7L980.1 170.8L981.3 170.8L980.3 169.6L982.1 170.8L983.1 169.7L987.9 170.2L990.5 170.0L990.6 178.3L984.3 173.7L980.9 175.6L977.5 175.4L976.5 166.9L978.6 165.4Z"/>
</defs>
<rect width="1200" height="520" fill="url(#aura)"/>
<g fill="#f5d0fe"><circle cx="1090" cy="386" r="0.8" opacity="0.63"/><circle cx="676" cy="144" r="1.7" opacity="0.76"/><circle cx="774" cy="14" r="0.6" opacity="0.60"/><circle cx="397" cy="125" r="1.7" opacity="0.26"/><circle cx="24" cy="349" r="1.7" opacity="0.26"/><circle cx="414" cy="157" r="0.6" opacity="0.62"/><circle cx="1194" cy="247" r="1.3" opacity="0.51"/><circle cx="804" cy="65" r="0.8" opacity="0.36"/><circle cx="608" cy="199" r="1.7" opacity="0.74"/><circle cx="939" cy="199" r="0.6" opacity="0.78"/><circle cx="882" cy="341" r="1.7" opacity="0.55"/><circle cx="508" cy="301" r="0.8" opacity="0.79"/><circle cx="175" cy="383" r="0.6" opacity="0.56"/><circle cx="745" cy="140" r="1.3" opacity="0.37"/><circle cx="1075" cy="214" r="0.8" opacity="0.49"/><circle cx="791" cy="348" r="0.6" opacity="0.52"/><circle cx="964" cy="98" r="1.7" opacity="0.54"/><circle cx="969" cy="125" r="0.6" opacity="0.62"/><circle cx="55" cy="283" r="1.7" opacity="0.34"/><circle cx="533" cy="274" r="0.6" opacity="0.39"/><circle cx="281" cy="134" r="1.7" opacity="0.41"/><circle cx="1181" cy="68" r="0.6" opacity="0.40"/><circle cx="1109" cy="92" r="1.7" opacity="0.46"/><circle cx="244" cy="309" r="0.8" opacity="0.49"/><circle cx="194" cy="130" r="1.0" opacity="0.55"/><circle cx="210" cy="32" r="1.7" opacity="0.59"/><circle cx="852" cy="353" r="1.7" opacity="0.29"/><circle cx="529" cy="122" r="0.8" opacity="0.82"/><circle cx="1062" cy="276" r="0.6" opacity="0.84"/><circle cx="251" cy="337" r="1.3" opacity="0.61"/><circle cx="960" cy="110" r="0.8" opacity="0.64"/><circle cx="985" cy="283" r="1.0" opacity="0.79"/><circle cx="531" cy="114" r="0.6" opacity="0.73"/><circle cx="270" cy="28" r="0.8" opacity="0.48"/><circle cx="867" cy="89" r="0.6" opacity="0.59"/><circle cx="14" cy="3" r="0.6" opacity="0.54"/><circle cx="229" cy="231" r="1.3" opacity="0.69"/><circle cx="872" cy="77" r="0.6" opacity="0.70"/><circle cx="66" cy="146" r="0.8" opacity="0.79"/><circle cx="77" cy="319" r="1.0" opacity="0.42"/><circle cx="392" cy="203" r="1.3" opacity="0.66"/><circle cx="1090" cy="288" r="0.6" opacity="0.73"/><circle cx="596" cy="215" r="1.7" opacity="0.40"/><circle cx="905" cy="234" r="0.8" opacity="0.50"/><circle cx="76" cy="284" r="1.0" opacity="0.37"/><circle cx="695" cy="91" r="1.3" opacity="0.30"/><circle cx="365" cy="153" r="1.0" opacity="0.58"/><circle cx="57" cy="280" r="0.8" opacity="0.49"/><circle cx="664" cy="52" r="0.8" opacity="0.70"/><circle cx="17" cy="197" r="1.3" opacity="0.70"/><circle cx="615" cy="169" r="1.7" opacity="0.38"/><circle cx="248" cy="177" r="1.3" opacity="0.84"/><circle cx="1005" cy="58" r="0.8" opacity="0.53"/><circle cx="970" cy="184" r="0.6" opacity="0.41"/><circle cx="162" cy="136" r="1.3" opacity="0.64"/><circle cx="1175" cy="206" r="1.0" opacity="0.33"/><circle cx="305" cy="255" r="1.7" opacity="0.32"/><circle cx="104" cy="396" r="0.6" opacity="0.66"/><circle cx="761" cy="93" r="0.6" opacity="0.53"/><circle cx="247" cy="169" r="1.3" opacity="0.61"/><circle cx="861" cy="1" r="1.3" opacity="0.82"/><circle cx="858" cy="174" r="0.6" opacity="0.40"/><circle cx="915" cy="404" r="1.0" opacity="0.85"/><circle cx="677" cy="116" r="1.7" opacity="0.49"/><circle cx="104" cy="151" r="1.7" opacity="0.85"/><circle cx="888" cy="364" r="1.7" opacity="0.60"/><circle cx="75" cy="275" r="0.6" opacity="0.34"/><circle cx="475" cy="228" r="0.6" opacity="0.55"/><circle cx="131" cy="146" r="0.8" opacity="0.44"/><circle cx="1118" cy="131" r="1.0" opacity="0.52"/></g>
<use href="#land" fill="#e879c6" opacity=".5" filter="url(#glow)"/>
<g opacity=".78"><use href="#land" fill="none" stroke="#fbcfe8" stroke-width="2.4" stroke-linejoin="round"/>
<use href="#land" fill="url(#isl2)" stroke="url(#isl2)" stroke-width=".9" stroke-linejoin="round"/></g>
<g fill="#fdf4ff"><circle cx="919" cy="107" r="3.1" opacity="0.39"/><circle cx="543" cy="173" r="3.3" opacity="0.20"/><circle cx="1015" cy="276" r="3.0" opacity="0.26"/><circle cx="1153" cy="378" r="2.8" opacity="0.21"/><circle cx="1121" cy="457" r="2.6" opacity="0.17"/><circle cx="690" cy="294" r="3.2" opacity="0.39"/><circle cx="798" cy="206" r="2.9" opacity="0.36"/><circle cx="911" cy="302" r="2.4" opacity="0.35"/><circle cx="623" cy="149" r="2.0" opacity="0.31"/><circle cx="419" cy="401" r="2.3" opacity="0.35"/><circle cx="829" cy="51" r="3.3" opacity="0.30"/><circle cx="874" cy="404" r="3.3" opacity="0.26"/><circle cx="781" cy="300" r="2.1" opacity="0.18"/><circle cx="661" cy="416" r="3.3" opacity="0.38"/><circle cx="1151" cy="315" r="2.0" opacity="0.27"/><circle cx="883" cy="214" r="2.6" opacity="0.28"/><circle cx="881" cy="63" r="2.4" opacity="0.16"/><circle cx="1015" cy="178" r="3.0" opacity="0.19"/><circle cx="700" cy="30" r="3.0" opacity="0.25"/><circle cx="568" cy="336" r="2.8" opacity="0.20"/><circle cx="613" cy="437" r="2.0" opacity="0.38"/><circle cx="863" cy="408" r="3.1" opacity="0.36"/><circle cx="631" cy="416" r="2.1" opacity="0.36"/><circle cx="1069" cy="284" r="2.3" opacity="0.34"/><circle cx="654" cy="215" r="3.0" opacity="0.32"/><circle cx="772" cy="417" r="2.0" opacity="0.34"/></g>
<path d="M0 520 0.0 398.8L20.0 408.4L40.0 398.4L60.0 401.6L80.0 413.2L100.0 407.9L120.0 411.3L140.0 421.0L160.0 413.3L180.0 419.7L200.0 416.1L220.0 409.0L240.0 401.9L260.0 393.0L280.0 389.5L300.0 378.1L320.0 373.9L340.0 365.7L360.0 358.6L380.0 361.3L400.0 358.4L420.0 355.5L440.0 367.0L460.0 369.5L480.0 379.8L500.0 377.3L520.0 389.2L540.0 391.7L560.0 387.1L580.0 391.2L600.0 389.5L620.0 387.9L640.0 388.2L660.0 388.7L680.0 392.6L700.0 395.0L720.0 398.1L740.0 402.8L760.0 408.2L780.0 408.3L800.0 422.5L820.0 428.8L840.0 431.0L860.0 434.1L880.0 425.1L900.0 420.2L920.0 416.7L940.0 407.1L960.0 403.3L980.0 395.7L1000.0 388.3L1020.0 378.2L1040.0 377.7L1060.0 371.2L1080.0 371.5L1100.0 368.7L1120.0 368.2L1140.0 373.1L1160.0 381.6L1180.0 378.3L1200.0 377.8L1200 520Z" fill="url(#g1)"/><path d="M0 520 0.0 446.9L20.0 446.1L40.0 439.5L60.0 436.1L80.0 438.7L100.0 438.2L120.0 444.4L140.0 446.4L160.0 458.2L180.0 454.0L200.0 454.6L220.0 457.7L240.0 448.7L260.0 437.8L280.0 421.5L300.0 413.6L320.0 413.4L340.0 402.8L360.0 408.5L380.0 405.8L400.0 417.8L420.0 425.1L440.0 426.3L460.0 426.6L480.0 426.7L500.0 424.0L520.0 427.6L540.0 425.8L560.0 431.1L580.0 425.8L600.0 439.3L620.0 450.4L640.0 460.0L660.0 460.9L680.0 469.9L700.0 466.1L720.0 454.3L740.0 447.4L760.0 435.8L780.0 425.6L800.0 425.2L820.0 416.8L840.0 415.8L860.0 417.0L880.0 422.4L900.0 421.0L920.0 428.8L940.0 424.4L960.0 415.9L980.0 411.6L1000.0 407.5L1020.0 408.9L1040.0 415.7L1060.0 418.9L1080.0 429.5L1100.0 434.8L1120.0 450.0L1140.0 452.0L1160.0 459.1L1180.0 461.3L1200.0 455.7L1200 520Z" fill="url(#g2)"/><path d="M0 520 0.0 482.4L20.0 487.4L40.0 480.0L60.0 481.0L80.0 467.3L100.0 461.5L120.0 454.3L140.0 447.3L160.0 456.4L180.0 456.1L200.0 469.1L220.0 470.2L240.0 470.8L260.0 471.4L280.0 474.9L300.0 470.1L320.0 478.1L340.0 486.2L360.0 491.1L380.0 495.7L400.0 487.5L420.0 481.2L440.0 470.0L460.0 458.2L480.0 457.4L500.0 461.2L520.0 459.3L540.0 467.8L560.0 465.1L580.0 464.9L600.0 463.6L620.0 460.6L640.0 468.2L660.0 472.2L680.0 482.7L700.0 491.2L720.0 497.0L740.0 495.4L760.0 484.0L780.0 474.8L800.0 470.8L820.0 465.3L840.0 471.6L860.0 469.9L880.0 466.9L900.0 463.1L920.0 466.1L940.0 452.1L960.0 448.9L980.0 458.2L1000.0 461.8L1020.0 467.0L1040.0 482.0L1060.0 490.3L1080.0 488.2L1100.0 485.2L1120.0 479.3L1140.0 480.7L1160.0 477.1L1180.0 481.2L1200.0 476.0L1200 520Z" fill="url(#g3)"/>
</svg>